<svg xmlns="http://www.w3.org/2000/svg" viewBox="0 0 128 128">
  <rect x="22" y="64" width="24" height="54" rx="4" fill="#5a4a3a"/>
  <rect x="82" y="64" width="24" height="54" rx="4" fill="#5a4a3a"/>
  <rect x="26" y="18" width="76" height="56" rx="8" fill="#6a5a4a"/>
  <rect x="30" y="22" width="68" height="48" rx="6" fill="#7a6a5a"/>
  <rect x="22" y="14" width="28" height="10" rx="3" fill="#5a4a3a"/>
  <rect x="78" y="14" width="28" height="10" rx="3" fill="#5a4a3a"/>
  <rect x="50" y="28" width="28" height="18" rx="4" fill="#9b59b6" opacity="0.3"/>
  <rect x="54" y="32" width="20" height="10" rx="2" fill="#c8a2c8" opacity="0.2"/>
  <rect x="26" y="6" width="76" height="16" rx="4" fill="#5a4a3a"/>
  <rect x="30" y="8" width="30" height="12" rx="2" fill="#c8a2c8" opacity="0.3"/>
  <rect x="70" y="8" width="30" height="12" rx="2" fill="#ffcc66" opacity="0.3"/>
  <circle cx="38" cy="60" r="5" fill="#9b59b6" opacity="0.2"/>
  <circle cx="70" cy="58" r="4" fill="#c8a2c8" opacity="0.15"/>
  <rect x="90" y="46" width="24" height="6" rx="2" fill="#9b59b6" opacity="0.2"/>
  <line x1="96" y1="46" x2="96" y2="28" stroke="#9b59b6" stroke-width="1.5" opacity="0.3"/>
  <rect x="96" y="72" width="4" height="30" rx="2" fill="#8a7a6a"/>
  <circle cx="98" cy="106" r="4" fill="#e67e22" opacity="0.4"/>
</svg>