<svg xmlns="http://www.w3.org/2000/svg" viewBox="0 0 64 64">
  <rect x="18" y="46" width="12" height="12" rx="3" fill="#3a3a5a"/>
  <rect x="34" y="46" width="12" height="12" rx="3" fill="#3a3a5a"/>
  <rect x="20" y="32" width="10" height="16" rx="2" fill="#4a4a6a"/>
  <rect x="34" y="32" width="10" height="16" rx="2" fill="#4a4a6a"/>
  <rect x="12" y="16" width="40" height="22" rx="5" fill="#6a6a8a"/>
  <rect x="14" y="20" width="36" height="3" rx="1" fill="#c8a2c8" opacity="0.5"/>
  <rect x="14" y="26" width="36" height="3" rx="1" fill="#c8a2c8" opacity="0.4"/>
  <rect x="14" y="32" width="36" height="3" rx="1" fill="#c8a2c8" opacity="0.3"/>
  <rect x="8" y="14" width="22" height="8" rx="3" fill="#5a5a7a"/>
  <rect x="34" y="14" width="22" height="8" rx="3" fill="#5a5a7a"/>
  <rect x="18" y="0" width="28" height="20" rx="5" fill="#4a4a6a"/>
  <rect x="22" y="6" width="20" height="8" rx="3" fill="#c8a2c8" opacity="0.25"/>
  <circle cx="32" cy="10" r="3" fill="#9b59b6" opacity="0.5"/>
  <!-- 左臂符文护盾 -->
  <ellipse cx="6" cy="32" rx="8" ry="18" fill="none" stroke="#c8a2c8" stroke-width="1.5"/>
  <ellipse cx="6" cy="32" rx="5" ry="14" fill="none" stroke="#9b59b6" stroke-width="1"/>
  <circle cx="6" cy="22" r="2" fill="#cc88ff" opacity="0.6"/>
  <!-- 右手武器 -->
  <rect x="52" y="28" width="4" height="24" rx="2" fill="#888"/>
</svg>